# xmcd
#
# Track frame offsets: 
#        150
#        4565
#        13162
#        20977
#        43910
#        75197
#        99220
#        121427
#        135140
#        161477
#        189010
#
# Disc length: 3772 seconds
#
# Revision: 3
# Processed by: cddbd v1.5.2PL0 Copyright (c) Steve Scherf et al.
# Submitted via: ExactAudioCopy v1.3
#
DISCID=730eba0b
DTITLE=Burr and Klaiber - Filius
DYEAR=1995
DGENRE=Jazz
TTITLE0=Rumba Mare 1
TTITLE1=Rumba Mare 2
TTITLE2=Rumba Mare 3
TTITLE3=Summer in Cologne
TTITLE4=No Name
TTITLE5=Filius
TTITLE6=25 or 6 to 4
TTITLE7=Missing Amp
TTITLE8=Feelings in Love
TTITLE9=Sarajevo
TTITLE10=Open Rooms
EXTD=YEAR: 1995
EXTT0=
EXTT1=
EXTT2=
EXTT3=
EXTT4=
EXTT5=
EXTT6=
EXTT7=
EXTT8=
EXTT9=
EXTT10=
PLAYORDER=
